<?xml version="1.0" standalone="no"?>
<!DOCTYPE svg PUBLIC "-//W3C//DTD SVG 20010904//EN"
 "http://www.w3.org/TR/2001/REC-SVG-20010904/DTD/svg10.dtd">
<svg version="1.0" xmlns="http://www.w3.org/2000/svg"
 width="1417.000000pt" height="500.000000pt" viewBox="0 0 1417.000000 500.000000"
 preserveAspectRatio="xMidYMid meet">

<g transform="translate(0.000000,500.000000) scale(0.100000,-0.100000)"
fill="#000000" stroke="none">
<path d="M0 2500 l0 -2500 7085 0 7085 0 0 2500 0 2500 -7085 0 -7085 0 0
-2500z m12365 1565 c328 -62 562 -259 662 -555 l28 -85 3 -655 c3 -756 4 -747
-80 -920 -45 -93 -61 -116 -142 -195 -140 -140 -263 -206 -456 -244 l-105 -22
-5290 4 c-4947 3 -5294 4 -5351 20 -166 46 -300 123 -415 237 -100 99 -161
196 -198 314 l-26 81 -3 662 c-3 754 -4 749 80 919 114 230 375 412 643 447
17 2 2402 5 5300 5 4678 2 5279 0 5350 -13z m-4100 -2894 c38 -17 115 -86 115
-103 0 -4 -27 -21 -60 -38 l-60 -31 -23 27 c-27 31 -100 43 -146 24 -74 -30
-92 -199 -29 -267 41 -44 141 -42 184 4 40 43 32 53 -41 53 l-65 0 0 60 0 60
141 0 142 0 -6 -68 c-3 -37 -13 -87 -22 -110 -23 -57 -102 -126 -159 -141
-144 -36 -262 13 -330 139 -37 68 -41 180 -10 250 23 50 98 124 147 145 47 21
173 19 222 -4z m2282 -140 c57 -79 103 -150 103 -158 0 -7 3 -13 8 -13 4 0 6
72 4 160 l-3 161 73 -3 73 -3 2 -245 c1 -135 0 -255 -3 -268 -4 -21 -9 -23
-72 -20 l-66 3 -101 142 c-55 78 -105 150 -112 160 -9 14 -12 -15 -12 -144
l-1 -163 -70 0 -70 0 0 270 0 271 72 -3 72 -3 103 -144z m-1009 42 c3 -45 6
-52 25 -55 19 -3 22 -10 25 -50 3 -45 2 -48 -22 -48 l-25 0 -3 -137 -3 -138
-65 0 -65 0 -3 138 -3 137 -24 0 c-23 0 -25 3 -25 50 0 47 2 50 25 50 24 0 25
3 25 55 l0 56 68 -3 67 -3 3 -52z m-806 -53 c53 -15 104 -79 118 -146 6 -30 9
-58 5 -64 -4 -6 -59 -10 -136 -10 l-130 0 6 -22 c4 -13 16 -31 28 -41 27 -24
83 -17 103 12 14 20 14 20 62 -1 60 -26 57 -23 39 -52 -24 -35 -95 -66 -153
-66 -131 2 -204 73 -204 200 0 73 15 106 71 153 52 45 117 57 191 37z m508 -5
c52 -27 60 -57 60 -225 l0 -150 -65 0 -65 0 0 121 c0 134 -8 159 -48 159 -58
0 -72 -34 -72 -176 l0 -104 -65 0 -65 0 0 190 0 190 60 0 60 0 0 -32 0 -32 28
26 c15 14 36 30 47 36 29 16 91 14 125 -3z m642 3 c68 -20 128 -113 128 -197
0 -20 -5 -21 -135 -21 -149 0 -160 -6 -109 -57 21 -21 32 -24 61 -20 19 4 41
14 48 24 11 15 17 16 53 4 61 -20 66 -25 52 -48 -25 -39 -80 -67 -140 -71
-136 -10 -222 64 -223 192 0 69 15 105 66 154 52 50 120 64 199 40z m1273 -7
c132 -59 162 -226 58 -322 -50 -47 -90 -62 -154 -57 -69 5 -120 39 -157 107
-26 45 -31 116 -13 163 16 42 80 107 115 117 50 15 108 12 151 -8z m428 -2
c30 -14 32 -21 16 -70 -15 -44 -13 -43 -48 -25 -16 9 -46 16 -66 16 -57 0 -42
-29 29 -55 74 -28 103 -55 108 -101 9 -76 -47 -134 -136 -142 -61 -5 -164 22
-173 45 -3 8 0 33 7 57 l12 44 46 -24 c46 -25 87 -30 111 -15 24 15 4 39 -41
52 -65 17 -96 36 -113 69 -19 37 -19 63 0 101 28 53 70 71 150 66 39 -3 82
-11 98 -18z m325 6 c29 -9 52 -17 52 -19 0 -1 -7 -23 -16 -48 l-15 -46 -36 14
c-42 18 -98 15 -98 -5 0 -8 23 -22 57 -33 118 -40 150 -116 83 -197 -33 -39
-84 -55 -154 -48 -51 4 -131 33 -131 46 1 18 27 92 33 91 4 0 27 -10 52 -21
56 -25 99 -22 103 7 2 17 -6 23 -56 37 -76 21 -112 60 -112 120 1 98 103 142
238 102z m315 4 c12 -6 32 -21 45 -32 l22 -20 0 26 c0 26 2 27 60 27 l60 0 0
-190 0 -190 -60 0 c-58 0 -60 1 -60 27 l0 27 -30 -29 c-23 -22 -41 -29 -82
-33 -67 -5 -113 23 -145 88 -32 62 -32 169 0 225 38 68 131 104 190 74z"/>
<path d="M1682 3760 c-206 -54 -367 -214 -402 -399 -13 -71 -14 -1180 0 -1252
32 -173 184 -330 376 -390 l79 -24 5290 0 c5108 0 5292 1 5350 18 214 66 365
225 395 417 13 86 13 1124 0 1210 -16 103 -77 217 -153 285 -71 64 -173 117
-267 139 -58 14 -641 16 -5330 15 -5151 0 -5267 -1 -5338 -19z m10641 -115
c126 -33 228 -110 284 -216 l28 -54 0 -635 0 -635 -27 -58 c-52 -110 -178
-201 -313 -226 -80 -15 -10441 -15 -10535 -1 -143 23 -283 127 -331 247 l-24
58 0 610 0 610 24 60 c17 43 42 78 87 123 64 64 121 96 209 118 39 10 1169 12
5295 13 4620 1 5253 -1 5303 -14z"/>
<path d="M4047 3351 c-173 -38 -343 -145 -450 -283 -60 -77 -87 -144 -100
-249 -44 -352 186 -620 605 -705 105 -21 278 -14 393 16 202 52 348 154 459
320 58 87 77 146 83 261 6 110 -5 173 -48 264 -78 164 -260 303 -479 365 -110
32 -342 37 -463 11z m336 -125 c95 -34 164 -115 194 -226 14 -52 17 -108 18
-275 0 -194 -2 -216 -24 -287 -15 -48 -36 -92 -56 -116 -106 -123 -315 -137
-446 -29 -106 86 -149 214 -149 442 0 288 68 433 230 489 56 19 182 20 233 2z"/>
<path d="M9585 3351 c-152 -32 -240 -68 -331 -137 -149 -112 -224 -251 -239
-445 -16 -191 61 -367 211 -486 108 -85 200 -124 372 -158 154 -30 214 -31
341 -5 241 49 394 173 462 372 28 85 29 84 -56 97 -42 6 -80 11 -84 11 -5 0
-14 -21 -20 -46 -17 -68 -43 -112 -104 -180 -40 -43 -74 -69 -119 -90 -59 -27
-71 -29 -183 -28 -137 0 -214 22 -273 78 -131 122 -168 526 -67 726 34 67 119
141 187 163 186 58 398 -34 487 -211 21 -43 46 -98 56 -124 l17 -46 57 5 c92
8 85 -9 77 191 -4 97 -9 212 -13 255 l-6 77 -56 0 c-52 0 -58 -2 -102 -46
l-48 -47 -38 18 c-148 71 -352 92 -528 56z"/>
<path d="M1864 3351 c-2 -2 -4 -31 -4 -63 l0 -58 81 0 c132 0 119 51 119 -473
0 -249 -4 -458 -9 -466 -6 -9 -38 -15 -100 -19 l-91 -5 0 -68 0 -69 400 0 401
0 -3 68 -3 67 -40 2 c-22 2 -64 6 -92 9 l-53 5 0 143 0 144 64 56 c35 31 68
56 73 56 4 0 22 -19 38 -41 17 -23 81 -107 142 -187 62 -81 113 -152 113 -158
0 -11 -66 -24 -126 -24 l-32 0 -4 -62 c-2 -35 -2 -66 0 -70 2 -5 174 -8 383
-8 l379 0 0 64 0 65 -57 15 c-32 9 -65 20 -73 25 -19 10 -88 93 -210 250 -52
67 -137 175 -187 239 -51 64 -92 120 -90 123 1 3 53 48 115 100 174 145 278
201 398 215 l55 7 -3 59 -3 59 -350 0 -350 0 -6 -53 c-3 -29 -4 -56 -3 -59 2
-3 43 -9 90 -12 97 -7 123 -21 105 -55 -6 -11 -68 -69 -138 -129 -70 -61 -171
-146 -223 -191 -51 -45 -96 -80 -98 -78 -6 6 -2 439 4 446 3 3 46 7 95 8 l89
4 0 59 c0 32 -3 59 -7 59 -5 0 -183 1 -396 3 -214 1 -391 0 -393 -2z"/>
<path d="M5064 3351 c-2 -2 -4 -32 -4 -67 l0 -62 96 -4 c81 -2 98 -6 110 -22
12 -16 14 -95 14 -452 0 -380 -2 -434 -16 -448 -20 -20 -43 -25 -129 -28 l-70
-3 -3 -67 -3 -68 699 0 700 0 5 53 c4 28 9 134 13 235 l7 182 -65 0 -64 0 -27
-56 c-30 -60 -92 -149 -123 -175 -83 -70 -229 -105 -398 -96 -60 3 -113 10
-118 15 -4 4 -7 96 -6 203 l3 194 45 -3 c125 -10 220 -100 220 -209 0 -22 4
-23 77 -23 l76 0 -6 227 c-4 124 -7 259 -7 300 l0 73 -69 0 -69 0 -7 -37 c-21
-111 -97 -176 -220 -185 l-40 -3 -3 160 c-1 88 0 169 2 181 11 45 120 63 260
45 199 -27 290 -99 362 -287 l17 -44 68 0 69 0 -1 153 c-1 83 -4 189 -7 235
l-7 83 -688 2 c-379 1 -691 0 -693 -2z"/>
<path d="M6544 3351 c-2 -2 -4 -32 -4 -66 l0 -62 90 -5 c50 -3 97 -11 105 -18
13 -11 15 -74 15 -466 0 -329 -3 -455 -11 -460 -7 -4 -54 -9 -105 -12 l-94 -5
0 -63 0 -64 415 0 416 0 -3 63 -3 62 -92 5 c-51 3 -97 10 -103 16 -7 7 -9 82
-8 220 l3 209 85 -3 c167 -5 211 -52 230 -247 13 -138 31 -200 71 -248 42 -50
93 -75 185 -88 160 -22 308 24 380 118 28 37 64 137 64 179 0 23 -3 24 -69 24
l-68 0 -6 -41 c-6 -46 -50 -119 -72 -119 -22 0 -45 41 -61 110 -28 121 -71
205 -132 261 -31 28 -66 56 -79 62 -31 14 -29 27 3 27 43 0 167 65 214 112 58
58 84 117 83 193 -1 103 -48 178 -148 235 -114 65 -94 63 -723 70 -316 3 -576
3 -578 1z m905 -142 c98 -22 135 -75 129 -183 -4 -84 -27 -125 -89 -157 -42
-21 -162 -39 -266 -39 l-63 0 0 184 c0 130 3 187 12 192 37 23 182 24 277 3z"/>
<path d="M8154 3351 c-2 -2 -4 -32 -4 -66 l0 -62 78 -5 c42 -2 87 -10 100 -17
l22 -12 0 -453 0 -453 -25 -11 c-14 -7 -59 -12 -100 -12 l-75 0 0 -65 0 -65
410 0 411 0 -3 63 -3 62 -91 5 c-55 3 -98 10 -108 19 -14 12 -16 57 -16 455 0
353 3 446 13 460 11 15 32 20 111 24 l97 5 -3 64 -3 64 -403 2 c-222 1 -406 0
-408 -2z"/>
<path d="M10473 3344 c-2 -6 -3 -36 -1 -65 l3 -54 91 -5 c56 -3 97 -10 108
-19 14 -12 16 -57 16 -451 0 -521 11 -478 -125 -482 l-90 -3 -3 -67 -3 -68
411 0 410 0 0 69 0 69 -85 3 c-51 3 -89 9 -97 17 -10 9 -14 64 -16 202 l-3
190 245 0 246 0 0 -189 c0 -143 -3 -191 -13 -199 -7 -6 -49 -15 -93 -19 l-79
-8 -3 -67 -3 -68 401 0 401 0 -3 68 -3 67 -90 5 c-49 3 -96 9 -102 13 -10 6
-13 108 -13 455 0 246 4 453 9 461 6 9 39 15 105 19 l97 5 -3 64 -3 64 -395 0
-395 0 -3 -64 -3 -64 81 -6 c44 -3 87 -11 95 -17 12 -10 15 -46 15 -186 0
-172 0 -174 -22 -179 -13 -3 -122 -4 -243 -3 l-220 3 -3 160 c-1 88 0 170 3
182 7 28 52 43 132 43 l64 0 -3 65 -3 65 -404 3 c-290 1 -405 -1 -408 -9z"/>
<path d="M8617 922 c-31 -34 -21 -42 48 -42 57 0 64 2 58 18 -15 43 -77 57
-106 24z"/>
<path d="M9767 922 c-30 -33 -21 -42 43 -42 65 0 76 12 42 43 -24 22 -65 21
-85 -1z"/>
<path d="M11026 888 c-9 -12 -16 -38 -16 -58 0 -51 24 -80 65 -80 41 0 65 29
65 80 0 51 -24 80 -65 80 -24 0 -39 -7 -49 -22z"/>
<path d="M12165 895 c-18 -17 -25 -35 -25 -63 0 -55 27 -86 75 -86 48 0 75 31
75 86 0 47 -35 88 -75 88 -14 0 -37 -11 -50 -25z"/>
</g>
</svg>
